<svg width="581" height="90.2" viewBox="0 0 581 90.2" xmlns="http://www.w3.org/2000/svg"><g id="svgGroup" stroke-linecap="round" fill-rule="evenodd" font-size="9pt" stroke="#000" stroke-width="0.25mm" fill="black" style="stroke:#000;stroke-width:0.25mm;fill:black"><path d="M 514.6 39.2 L 514.6 70 L 499 70 L 499 41.6 Q 499 35.2 496.35 32.05 A 8.609 8.609 0 0 0 491.177 29.109 A 12.861 12.861 0 0 0 488.8 28.9 A 13.738 13.738 0 0 0 484.998 29.399 A 10.285 10.285 0 0 0 480.1 32.45 Q 477.584 35.242 477.046 40.167 A 26.143 26.143 0 0 0 476.9 43 L 476.9 70 L 461.3 70 L 461.3 41.6 Q 461.3 30.103 452.94 29.014 A 14.254 14.254 0 0 0 451.1 28.9 A 13.257 13.257 0 0 0 447.235 29.436 A 10.287 10.287 0 0 0 442.5 32.45 Q 439.984 35.242 439.446 40.167 A 26.143 26.143 0 0 0 439.3 43 L 439.3 70 L 423.7 70 L 423.7 16.2 L 438.6 16.2 L 438.6 22.4 Q 441.6 19 445.95 17.2 Q 450.3 15.4 455.5 15.4 A 24.891 24.891 0 0 1 461.802 16.172 A 21.315 21.315 0 0 1 465.8 17.65 Q 470.4 19.9 473.2 24.2 Q 476.5 20 481.55 17.7 A 25.909 25.909 0 0 1 491.115 15.436 A 30.415 30.415 0 0 1 492.6 15.4 Q 502.7 15.4 508.65 21.35 Q 513.577 26.277 514.424 35.285 A 41.854 41.854 0 0 1 514.6 39.2 Z M 566 16.2 L 581 16.2 L 556.7 73.3 A 44.33 44.33 0 0 1 554.217 78.575 Q 551.297 83.788 547.55 86.4 A 20.972 20.972 0 0 1 538.56 89.898 A 27.755 27.755 0 0 1 534.4 90.2 Q 530.2 90.2 526.1 88.9 A 22.243 22.243 0 0 1 522.8 87.571 Q 520.953 86.64 519.538 85.421 A 13.902 13.902 0 0 1 519.4 85.3 L 525.1 74.2 Q 526.9 75.8 529.25 76.7 A 13.514 13.514 0 0 0 532.449 77.511 A 11.954 11.954 0 0 0 533.9 77.6 A 10.787 10.787 0 0 0 536.131 77.382 Q 537.581 77.076 538.698 76.338 A 6.549 6.549 0 0 0 539.1 76.05 A 8.628 8.628 0 0 0 540.544 74.599 Q 541.7 73.15 542.7 70.9 L 542.9 70.4 L 519.6 16.2 L 535.7 16.2 L 550.8 52.7 L 566 16.2 Z M 343.5 39.2 L 343.5 70 L 327.9 70 L 327.9 41.6 A 23.298 23.298 0 0 0 327.653 38.086 Q 327.379 36.295 326.801 34.857 A 9.527 9.527 0 0 0 325.1 32.05 A 9.035 9.035 0 0 0 320.383 29.281 Q 318.843 28.9 317 28.9 A 15.443 15.443 0 0 0 312.912 29.413 A 11.378 11.378 0 0 0 307.6 32.55 Q 304.1 36.2 304.1 43.4 L 304.1 70 L 288.5 70 L 288.5 16.2 L 303.4 16.2 L 303.4 22.5 Q 306.5 19.1 311.1 17.25 A 25.826 25.826 0 0 1 318.671 15.502 A 30.942 30.942 0 0 1 321.2 15.4 A 27.098 27.098 0 0 1 328.425 16.316 A 20.285 20.285 0 0 1 337.35 21.4 A 18.993 18.993 0 0 1 342.149 29.412 Q 343.078 32.338 343.368 35.867 A 40.664 40.664 0 0 1 343.5 39.2 Z M 79 65 L 84.2 53.8 A 27.969 27.969 0 0 0 88.311 55.946 Q 90.363 56.819 92.746 57.506 A 45.552 45.552 0 0 0 92.9 57.55 A 37.45 37.45 0 0 0 100.669 58.926 A 33.644 33.644 0 0 0 102.9 59 A 30.03 30.03 0 0 0 106.201 58.835 Q 109.504 58.467 111.154 57.281 A 3.723 3.723 0 0 0 112.8 54.1 A 3.052 3.052 0 0 0 111.48 51.519 Q 110.912 51.101 110.1 50.8 A 18.49 18.49 0 0 0 108.352 50.261 Q 105.825 49.603 101.8 49.1 A 115.4 115.4 0 0 1 97.353 48.343 Q 95.273 47.943 93.491 47.505 A 51.329 51.329 0 0 1 90.9 46.8 Q 86.6 45.5 83.45 42.2 Q 80.657 39.274 80.34 34.146 A 21.861 21.861 0 0 1 80.3 32.8 Q 80.3 27.7 83.25 23.75 A 16.726 16.726 0 0 1 87.701 19.679 A 23.506 23.506 0 0 1 91.85 17.6 Q 97.5 15.4 105.2 15.4 Q 110.9 15.4 116.55 16.65 A 41.473 41.473 0 0 1 120.8 17.816 Q 123.696 18.789 125.9 20.1 L 120.7 31.2 Q 113.6 27.2 105.2 27.2 Q 100.733 27.2 98.262 28.317 A 7.322 7.322 0 0 0 97.7 28.6 Q 96.075 29.51 95.506 30.758 A 3.436 3.436 0 0 0 95.2 32.2 A 3.515 3.515 0 0 0 95.611 33.922 Q 96.253 35.09 97.9 35.7 A 19.791 19.791 0 0 0 99.45 36.194 Q 101.244 36.694 103.88 37.167 A 100.847 100.847 0 0 0 106.5 37.6 Q 113.1 38.7 117.3 39.95 Q 121.5 41.2 124.6 44.5 A 10.875 10.875 0 0 1 127.138 49.147 Q 127.595 50.805 127.68 52.775 A 21.309 21.309 0 0 1 127.7 53.7 Q 127.7 58.7 124.7 62.6 A 16.571 16.571 0 0 1 120.455 66.434 Q 118.466 67.709 115.95 68.65 A 32.074 32.074 0 0 1 109.875 70.228 Q 106.921 70.711 103.559 70.786 A 56.177 56.177 0 0 1 102.3 70.8 Q 95.6 70.8 89.2 69.15 Q 82.8 67.5 79 65 Z M 61.5 70 L 55.3 55 L 22.8 55 L 16.6 70 L 0 70 L 31.2 0 L 47.2 0 L 78.5 70 L 61.5 70 Z M 167.8 56.4 L 172 67.4 A 14.169 14.169 0 0 1 169.08 69.044 A 19.021 19.021 0 0 1 166.35 69.95 A 28.185 28.185 0 0 1 160.22 70.787 A 31.655 31.655 0 0 1 159.3 70.8 A 30.235 30.235 0 0 1 153.468 70.272 Q 150.036 69.597 147.372 68.058 A 15.975 15.975 0 0 1 144.45 65.9 Q 139.2 61 139.2 51.5 L 139.2 29.4 L 130.9 29.4 L 130.9 17.4 L 139.2 17.4 L 139.2 4.3 L 154.8 4.3 L 154.8 17.4 L 168.2 17.4 L 168.2 29.4 L 154.8 29.4 L 154.8 51.3 A 10.606 10.606 0 0 0 154.988 53.364 Q 155.23 54.579 155.779 55.519 A 5.618 5.618 0 0 0 156.55 56.55 A 5.696 5.696 0 0 0 159.387 58.161 Q 160.29 58.385 161.357 58.399 A 10.904 10.904 0 0 0 161.5 58.4 A 11.385 11.385 0 0 0 164.721 57.962 A 9.306 9.306 0 0 0 167.8 56.4 Z M 239.591 69.677 A 34.962 34.962 0 0 0 248.6 70.8 A 37.911 37.911 0 0 0 252.485 70.605 A 30.62 30.62 0 0 0 263.8 67.25 Q 270.5 63.7 274.3 57.4 A 25.708 25.708 0 0 0 276.76 52.001 A 28.813 28.813 0 0 0 278.1 43.1 A 32.401 32.401 0 0 0 278.04 41.111 A 26.625 26.625 0 0 0 274.3 28.8 Q 270.5 22.5 263.8 18.95 A 29.402 29.402 0 0 0 257.476 16.492 A 34.845 34.845 0 0 0 248.6 15.4 A 38.158 38.158 0 0 0 244.965 15.57 A 31.045 31.045 0 0 0 233.35 18.95 Q 226.6 22.5 222.8 28.8 A 25.708 25.708 0 0 0 220.34 34.199 A 28.813 28.813 0 0 0 219 43.1 A 32.401 32.401 0 0 0 219.06 45.089 A 26.625 26.625 0 0 0 222.8 57.4 Q 226.6 63.7 233.35 67.25 A 29.802 29.802 0 0 0 239.591 69.677 Z M 374.791 69.677 A 34.962 34.962 0 0 0 383.8 70.8 A 37.911 37.911 0 0 0 387.685 70.605 A 30.62 30.62 0 0 0 399 67.25 Q 405.7 63.7 409.5 57.4 A 25.708 25.708 0 0 0 411.96 52.001 A 28.813 28.813 0 0 0 413.3 43.1 A 32.401 32.401 0 0 0 413.24 41.111 A 26.625 26.625 0 0 0 409.5 28.8 Q 405.7 22.5 399 18.95 A 29.402 29.402 0 0 0 392.676 16.492 A 34.845 34.845 0 0 0 383.8 15.4 A 38.158 38.158 0 0 0 380.165 15.57 A 31.045 31.045 0 0 0 368.55 18.95 Q 361.8 22.5 358 28.8 A 25.708 25.708 0 0 0 355.54 34.199 A 28.813 28.813 0 0 0 354.2 43.1 A 32.401 32.401 0 0 0 354.26 45.089 A 26.625 26.625 0 0 0 358 57.4 Q 361.8 63.7 368.55 67.25 A 29.802 29.802 0 0 0 374.791 69.677 Z M 214.2 15.4 L 214.2 29.8 A 157.355 157.355 0 0 0 213.144 29.722 Q 211.403 29.6 210.7 29.6 Q 204 29.6 200.2 33.35 Q 197.014 36.494 196.499 42.275 A 26.236 26.236 0 0 0 196.4 44.6 L 196.4 70 L 180.8 70 L 180.8 16.2 L 195.7 16.2 L 195.7 23.3 A 17.126 17.126 0 0 1 202.377 17.792 A 20.596 20.596 0 0 1 203.25 17.4 Q 208 15.4 214.2 15.4 Z M 248.6 58 A 14.507 14.507 0 0 0 253.517 57.197 A 12.588 12.588 0 0 0 258.45 53.95 A 13.62 13.62 0 0 0 261.885 47.266 A 19.878 19.878 0 0 0 262.3 43.1 A 19.467 19.467 0 0 0 261.781 38.477 A 13.502 13.502 0 0 0 258.45 32.25 A 12.844 12.844 0 0 0 249.342 28.216 A 17.2 17.2 0 0 0 248.6 28.2 Q 242.6 28.2 238.7 32.25 A 13.607 13.607 0 0 0 235.182 39.113 A 19.793 19.793 0 0 0 234.8 43.1 Q 234.8 49.9 238.7 53.95 A 13.045 13.045 0 0 0 248.042 57.991 A 17.352 17.352 0 0 0 248.6 58 Z M 383.8 58 A 14.507 14.507 0 0 0 388.717 57.197 A 12.588 12.588 0 0 0 393.65 53.95 A 13.62 13.62 0 0 0 397.085 47.266 A 19.878 19.878 0 0 0 397.5 43.1 A 19.467 19.467 0 0 0 396.981 38.477 A 13.502 13.502 0 0 0 393.65 32.25 A 12.844 12.844 0 0 0 384.542 28.216 A 17.2 17.2 0 0 0 383.8 28.2 Q 377.8 28.2 373.9 32.25 A 13.607 13.607 0 0 0 370.382 39.113 A 19.793 19.793 0 0 0 370 43.1 Q 370 49.9 373.9 53.95 A 13.045 13.045 0 0 0 383.242 57.991 A 17.352 17.352 0 0 0 383.8 58 Z M 28 42.7 L 50.2 42.7 L 39.1 15.9 L 28 42.7 Z" vector-effect="non-scaling-stroke"/></g></svg>